<svg xmlns="http://www.w3.org/2000/svg" width="203" height="216" viewBox="0 0 203 216" version="1.1">
	<path d="M 0 108 L 0 216 51.826 216 C 117.388 216, 126.808 215.125, 147.531 207.113 C 170.179 198.355, 187.667 178.943, 196.631 152.610 C 199.073 145.436, 201.830 132.413, 202.235 126.140 C 202.364 124.138, 202.708 143.425, 203 169 C 203.324 197.392, 203.530 173.442, 203.529 107.500 C 203.529 41.236, 203.330 18.242, 203.014 48 C 202.672 80.273, 202.243 93.758, 201.731 88.304 C 198.499 53.854, 179.781 24.357, 152.663 10.979 C 132.696 1.128, 122.395 0.008, 51.750 0.003 L 0 0 0 108 M 0.482 108.500 C 0.482 167.900, 0.603 192.053, 0.750 162.173 C 0.897 132.294, 0.897 83.694, 0.750 54.173 C 0.603 24.653, 0.482 49.100, 0.482 108.500 M 25 107.001 L 25 197.139 72.250 196.762 C 116.959 196.405, 119.919 196.268, 127.287 194.224 C 137.557 191.374, 149.903 184.855, 156.570 178.762 C 166.937 169.288, 175.953 152.415, 179.740 135.404 C 182.272 124.034, 182.238 90.972, 179.683 79 C 175.861 61.094, 167.074 44.773, 155.697 34.448 C 149.056 28.421, 135.262 21.092, 126.500 18.935 C 123.029 18.081, 106.749 17.576, 73.250 17.284 L 25 16.863 25 107.001 M 33 105.983 L 33 184.132 76.750 183.775 C 119.364 183.428, 120.682 183.358, 127.500 181.095 C 142.133 176.239, 151.476 170.111, 158.598 160.699 C 171.625 143.481, 176.947 120.371, 174.056 93.570 C 171.062 65.817, 158.510 45.216, 138.705 35.547 C 124.860 28.789, 124.131 28.703, 76.250 28.247 L 33 27.835 33 105.983 M 67 106.639 L 67 158.278 88.750 157.730 C 113.011 157.118, 118.008 156.153, 125.206 150.689 C 133.699 144.241, 137.788 132.658, 138.687 112.500 C 139.931 84.607, 134.464 68.045, 121.508 60.452 C 114.571 56.386, 105.566 55.037, 85.250 55.017 L 67 55 67 106.639" stroke="none" fill="black" fill-rule="evenodd"/>
</svg>