<svg xmlns="http://www.w3.org/2000/svg" width="594" height="218" viewBox="0 0 594 218" version="1.1">
	<path d="M 0 108.063 L 0 216.126 60.750 215.729 C 128.190 215.288, 127.870 215.317, 146.772 208.028 C 175.823 196.825, 196.110 169.129, 201.511 133.303 C 203.974 116.958, 203.258 91.164, 199.905 75.500 C 192.145 39.244, 168.140 12.755, 135.553 4.488 C 121.301 0.873, 104.749 0, 50.446 0 L 0 0 0 108.063 M 25 107.078 L 25 198.157 71.250 197.730 C 121.974 197.261, 123.732 197.084, 138.534 190.921 C 169.609 177.985, 186.106 141.881, 182.113 95.549 C 180.618 78.200, 178.206 68.892, 171.881 56.063 C 167.512 47.202, 165.435 44.316, 158.118 36.945 C 148.689 27.446, 140.490 22.689, 128 19.471 C 119.252 17.217, 96.096 16.095, 57.250 16.043 L 25 16 25 107.078 M 33 106.487 L 33 185.170 74.750 184.728 C 122.302 184.225, 124.657 183.928, 139.651 176.528 C 151.183 170.836, 159.630 162.220, 165.872 149.782 C 172.821 135.934, 174.326 128.442, 174.367 107.500 C 174.397 92.153, 174.073 88.173, 172.171 80.500 C 168.706 66.525, 162.968 55.918, 154.026 46.957 C 145.454 38.365, 137.945 33.992, 126.314 30.819 C 119.052 28.838, 115.479 28.656, 75.750 28.246 L 33 27.804 33 106.487 M 67 106.500 L 67 158 87.250 157.984 C 109.565 157.967, 115.870 157.024, 123.475 152.567 C 129.013 149.322, 133.192 143.213, 136.178 134 C 137.859 128.814, 138.380 124.128, 138.756 110.815 C 139.446 86.401, 136.920 75.452, 128.429 66.053 C 120.556 57.339, 111.571 55.042, 85.250 55.017 L 67 55 67 106.500 M 252.500 67.583 C 240.690 70.227, 233.469 74.303, 224.491 83.392 C 215.381 92.614, 210.360 101.448, 206.810 114.500 C 204.932 121.403, 204.634 125.106, 204.634 141.500 C 204.634 157.768, 204.938 161.599, 206.749 168.144 C 212.253 188.036, 224.554 203.398, 240.779 210.643 C 248.309 214.006, 248.411 213.564, 241.098 209.250 C 233.443 204.734, 223.501 194.293, 219.236 186.291 C 217.522 183.076, 214.879 176.408, 213.361 171.473 C 210.742 162.959, 210.602 161.503, 210.632 143 C 210.668 121.162, 211.972 113.947, 218.070 101.856 C 226.494 85.153, 241.671 72.243, 256 69.593 C 258.753 69.083, 258.289 69.463, 253.825 71.373 C 240.756 76.964, 230.530 87.049, 223.511 101.272 C 218.057 112.321, 216.166 120.483, 215.346 136.500 C 213.343 175.661, 228.417 203.531, 257.119 213.733 C 266.886 217.204, 287.008 218.133, 297.047 215.576 C 321.779 209.277, 337.705 191.490, 343.412 163.792 C 345.686 152.753, 345.515 131.125, 343.059 119.223 C 337.734 93.414, 321.021 75.016, 297.419 68.979 C 286.556 66.201, 262.072 65.440, 252.500 67.583 M 387.209 67.452 C 368.338 71.770, 356.756 83.303, 353.955 100.565 C 352.585 109.002, 354.412 119.435, 358.473 126.363 C 361.874 132.168, 369.470 139.191, 375.834 142.416 C 382.834 145.963, 383.444 145.654, 377.433 141.606 C 351.791 124.337, 353.972 85.628, 381.299 72.979 C 390.603 68.672, 394.583 68.211, 386.368 72.391 C 377.991 76.654, 371.924 82.796, 368.160 90.825 C 365.784 95.894, 365.500 97.677, 365.500 107.521 C 365.500 117.928, 365.681 118.909, 368.741 125.126 C 375.281 138.411, 385.227 144.649, 412.500 152.573 C 433.022 158.536, 437.548 160.791, 440.051 166.304 C 442.380 171.433, 442.460 173.963, 440.447 178.782 C 437.646 185.487, 432.136 190.015, 425 191.476 C 421.535 192.185, 421.544 192.168, 426 189.768 C 435.254 184.784, 439.275 172.408, 434.032 165.045 C 432.124 162.365, 425.505 158, 423.350 158 C 422.949 158, 424.052 159.399, 425.801 161.110 C 434.426 169.543, 430.377 184.200, 418 189.350 C 411.152 192.200, 404.498 191.804, 399.177 188.230 C 393.497 184.416, 390.279 179.710, 387.820 171.624 L 385.729 164.748 380.422 165.296 C 377.361 165.612, 374.977 165.432, 374.791 164.872 C 374.585 164.254, 369.920 164.373, 361.983 165.200 C 347.528 166.705, 347.736 166.489, 350.468 177.220 C 354.798 194.222, 364.949 206.898, 378.250 211.914 C 382.245 213.420, 381.627 212.557, 376.599 209.611 C 367.790 204.448, 359.842 192.544, 356.522 179.540 C 354.401 171.235, 354.532 168.356, 357.061 167.694 C 358.210 167.394, 359.263 167.674, 359.441 168.328 C 359.616 168.972, 360.534 173.018, 361.481 177.318 C 366.018 197.918, 378.541 211.139, 397.729 215.589 C 405.377 217.363, 423.717 217.643, 431.593 216.105 C 443.026 213.874, 453.229 208.305, 458.768 201.271 C 473.032 183.161, 472.229 156.134, 456.975 140.879 C 450.760 134.665, 440.915 130.114, 421.647 124.547 C 395.577 117.015, 391 114.170, 391 105.500 C 391 96.615, 399.310 91.462, 413.500 91.549 C 427.108 91.632, 433.996 96.424, 437.004 107.900 L 438.158 112.300 451.259 111.637 C 458.464 111.272, 464.593 110.741, 464.877 110.456 C 465.162 110.171, 464.901 107.053, 464.297 103.526 C 461.164 85.237, 448.619 72.357, 430.122 68.440 C 419.933 66.282, 394.845 65.704, 387.209 67.452 M 260.813 68.683 C 261.534 68.972, 262.397 68.936, 262.729 68.604 C 263.061 68.272, 262.471 68.036, 261.417 68.079 C 260.252 68.127, 260.015 68.364, 260.813 68.683 M 394.813 68.683 C 395.534 68.972, 396.397 68.936, 396.729 68.604 C 397.061 68.272, 396.471 68.036, 395.417 68.079 C 394.252 68.127, 394.015 68.364, 394.813 68.683 M 481 141.066 L 481 214.133 483.750 213.816 L 486.500 213.500 486.757 141.750 L 487.013 70 489.507 70 L 492 70 492 142.500 L 492 215 543 215 L 594 215 594 202.650 L 594 190.299 584.846 189.650 C 579.812 189.292, 562.937 189, 547.346 189 L 519 189 519 170 L 519 151 552.500 151 L 586 151 586 138.648 L 586 126.296 577.750 125.654 C 573.212 125.301, 558.138 125.009, 544.250 125.006 L 519 125 519 109.500 L 519 94 555 94 L 591 94 591 81.648 L 591 69.296 582.750 68.654 C 578.212 68.301, 553.462 68.009, 527.750 68.006 L 481 68 481 141.066 M 269.870 93.500 C 251.129 99.534, 241.672 118.802, 243.365 147.500 C 244.589 168.250, 251.702 181.761, 264.933 188.466 C 271.041 191.561, 274.232 191.634, 281.681 188.846 C 288.879 186.153, 297.090 178.230, 300.577 170.613 C 307.796 154.844, 307.747 125.302, 300.478 110.736 C 297.665 105.099, 292.321 98.950, 287.500 95.803 C 284.746 94.006, 284.705 93.901, 287 94.526 C 291.975 95.882, 298.118 100.208, 301.946 105.051 C 308.889 113.835, 311.993 125.579, 311.975 143 C 311.950 167.394, 303.102 184.459, 287.338 190.519 L 283.500 191.994 287 191.422 C 292.909 190.456, 300.574 186.186, 304.981 181.405 C 313.156 172.536, 316.965 159.851, 316.965 141.500 C 316.965 117.222, 309.812 102.029, 295.195 95.260 C 288.451 92.137, 276.651 91.317, 269.870 93.500 M 419.775 95.624 C 422.164 98.016, 424.759 103.404, 426.579 109.750 C 427.156 111.762, 432.004 111.313, 431.978 109.250 C 431.919 104.508, 424.358 94, 421.005 94 C 420.542 94, 419.430 93.718, 418.533 93.374 C 417.636 93.030, 418.195 94.043, 419.775 95.624" stroke="none" fill="black" fill-rule="evenodd"/>
</svg>