<svg xmlns="http://www.w3.org/2000/svg" width="497" height="585" viewBox="0 0 497 585" version="1.1">
	<path d="M 126 1.523 C 69.706 9.538, 24.268 47.751, 7.025 101.580 C 0.223 122.815, 0.657 111.038, 0.245 285.500 C -0.029 401.420, 0.183 446.430, 1.040 454.500 C 3.906 481.472, 13.290 505.191, 29.829 527.266 C 34.933 534.078, 36.648 535.750, 37.526 534.766 C 39.560 532.486, 60.335 508.538, 61.637 506.972 C 62.701 505.694, 62.204 504.433, 58.589 499.239 C 49.683 486.441, 43.024 469.253, 41.010 453.865 C 40.246 448.024, 40.006 397.666, 40.214 287 L 40.512 128.500 42.702 120.802 C 49.580 96.623, 61.664 77.611, 78.937 63.791 C 91.441 53.786, 103.932 47.496, 120.813 42.704 C 128.481 40.527, 128.784 40.521, 243.500 40.208 C 365.732 39.874, 367.259 39.923, 382.476 44.688 C 399.777 50.106, 418.586 61.933, 429.070 73.987 L 434.201 79.887 447.606 64.693 L 461.010 49.500 451.554 40.385 C 435.787 25.186, 416.758 13.846, 395.743 7.124 C 374.483 0.324, 381.659 0.660, 252.500 0.404 C 158.537 0.217, 133.630 0.437, 126 1.523 M 278.316 236.250 C 279.054 238.037, 286.598 257.609, 295.079 279.742 L 310.500 319.984 338.095 319.992 L 365.691 320 354.377 277.804 C 348.154 254.596, 342.838 235.021, 342.563 234.304 C 342.166 233.269, 335.347 233, 309.518 233 L 276.973 233 278.316 236.250" stroke="none" fill="black" fill-rule="evenodd"/>
</svg>